<svg width="9" height="13" viewBox="0 0 9 13" fill="none" xmlns="http://www.w3.org/2000/svg">
<path d="M4.66038 12.096C3.84971 12.096 3.08171 11.968 2.35638 11.712C1.64171 11.4453 1.06571 11.0933 0.628375 10.656L1.18838 9.744C1.55104 10.1173 2.03638 10.4267 2.64438 10.672C3.26304 10.9173 3.93504 11.04 4.66038 11.04C5.58838 11.04 6.29771 10.8373 6.78838 10.432C7.28971 10.0267 7.54038 9.48267 7.54038 8.8C7.54038 8.11733 7.29504 7.57333 6.80438 7.168C6.32438 6.76267 5.56171 6.56 4.51638 6.56H3.71638V5.712L7.17238 1.376L7.33238 1.824H1.09238V0.799999H8.29238V1.616L4.83638 5.952L4.27638 5.584H4.70837C6.05238 5.584 7.05504 5.88267 7.71638 6.48C8.38838 7.07733 8.72438 7.84533 8.72438 8.784C8.72438 9.41333 8.57504 9.97867 8.27638 10.48C7.97771 10.9813 7.52438 11.376 6.91638 11.664C6.31904 11.952 5.56704 12.096 4.66038 12.096Z" fill="#7859CF"/>
</svg>
