<svg width="10" height="12" viewBox="0 0 10 12" fill="none" xmlns="http://www.w3.org/2000/svg">
<path d="M0.90375 12V10.608L5.35175 6.384C5.72508 6.032 6.00242 5.72267 6.18375 5.456C6.36508 5.18933 6.48242 4.944 6.53575 4.72C6.59975 4.48533 6.63175 4.26667 6.63175 4.064C6.63175 3.552 6.45575 3.15733 6.10375 2.88C5.75175 2.592 5.23442 2.448 4.55175 2.448C4.00775 2.448 3.51175 2.544 3.06375 2.736C2.62642 2.928 2.24775 3.22133 1.92775 3.616L0.47175 2.496C0.909083 1.90933 1.49575 1.456 2.23175 1.136C2.97842 0.805333 3.81042 0.639999 4.72775 0.639999C5.53842 0.639999 6.24242 0.773333 6.83975 1.04C7.44775 1.296 7.91175 1.664 8.23175 2.144C8.56242 2.624 8.72775 3.19467 8.72775 3.856C8.72775 4.21867 8.67975 4.58133 8.58375 4.944C8.48775 5.296 8.30642 5.66933 8.03975 6.064C7.77308 6.45867 7.38375 6.90133 6.87175 7.392L3.04775 11.024L2.61575 10.24H9.15975V12H0.90375Z" fill="#333333"/>
</svg>
